<svg id="home_icon" data-name="home icon" xmlns="http://www.w3.org/2000/svg" width="27" height="27" viewBox="0 0 27 27">
  <path id="_1515716962" data-name="1515716962" d="M423.043,433.415l-11.506-10.4a.512.512,0,0,0-.137-.086,1.883,1.883,0,0,0-2.464.086l-11.506,10.4a2.193,2.193,0,0,0-.231,2.948,1.684,1.684,0,0,0,1.734.432v11.183a1.493,1.493,0,0,0,1.448,1.531h6.931a.579.579,0,0,0,.566-.59v-9.753H412.6v9.753a.579.579,0,0,0,.566.59h6.931a1.493,1.493,0,0,0,1.448-1.531V436.794a1.69,1.69,0,0,0,1.734-.432A2.193,2.193,0,0,0,423.043,433.415Zm-.64,2.194c-.116.143-.72.065-1.2-.155a.544.544,0,0,0-.536.047.6.6,0,0,0-.257.493v11.981a.336.336,0,0,1-.317.351h-6.366v-9.753a.579.579,0,0,0-.566-.59h-5.849a.579.579,0,0,0-.566.59v9.753h-6.366a.335.335,0,0,1-.317-.351V435.995a.6.6,0,0,0-.257-.495.556.556,0,0,0-.537-.046c-.428.2-1.078.308-1.2.154a.968.968,0,0,1,.1-1.3l11.506-10.4a.8.8,0,0,1,1.085,0,.522.522,0,0,0,.136.091L422.3,434.308a.966.966,0,0,1,.1,1.3Z" transform="translate(-396.737 -422.508)" fill="#999"/>
</svg>
