<svg id="user_icon" data-name="user icon" xmlns="http://www.w3.org/2000/svg" xmlns:xlink="http://www.w3.org/1999/xlink" width="27" height="27" viewBox="0 0 27 27">
  <defs>
    <linearGradient id="linear-gradient" x1="0.5" x2="0.5" y2="1" gradientUnits="objectBoundingBox">
      <stop offset="0" stop-color="#7c1674"/>
      <stop offset="1" stop-color="#1bd0c2"/>
    </linearGradient>
  </defs>
  <path id="Union_2" data-name="Union 2" d="M0,13.523A13.5,13.5,0,1,1,13.521,27,13.553,13.553,0,0,1,0,13.523ZM13.521,25.6a12.23,12.23,0,0,0,8.98-3.9,9.924,9.924,0,0,0-9.023-5.368,9.857,9.857,0,0,0-8.974,5.354A12.3,12.3,0,0,0,13.521,25.6Zm5.485-15.489a6.237,6.237,0,0,1-2.635,5.182,11.014,11.014,0,0,1,7.01,5.35,11.934,11.934,0,0,0,2.343-7.116,12.225,12.225,0,0,0-24.449,0A11.892,11.892,0,0,0,3.6,20.594a11.02,11.02,0,0,1,6.986-5.3,6.237,6.237,0,0,1-2.635-5.182,5.832,5.832,0,0,1,5.528-6.083A5.832,5.832,0,0,1,19.006,10.107Zm-9.78,0a4.486,4.486,0,0,0,4.252,4.679,4.486,4.486,0,0,0,4.252-4.679,4.486,4.486,0,0,0-4.252-4.679A4.486,4.486,0,0,0,9.227,10.107Z" fill="url(#linear-gradient)"/>
</svg>
