<svg id="Component_2_2" data-name="Component 2 – 2" xmlns="http://www.w3.org/2000/svg" xmlns:xlink="http://www.w3.org/1999/xlink" width="27" height="27" viewBox="0 0 27 27">
  <defs>
    <linearGradient id="linear-gradient" x1="0.5" x2="0.5" y2="1" gradientUnits="objectBoundingBox">
      <stop offset="0" stop-color="#7c1674"/>
      <stop offset="1" stop-color="#1bd0c2"/>
    </linearGradient>
  </defs>
  <path id="Union_4" data-name="Union 4" d="M5,27a5.006,5.006,0,0,1-5-5V5A5.006,5.006,0,0,1,5,0H22a5.006,5.006,0,0,1,5,5V22a5.006,5.006,0,0,1-5,5ZM1.317,4.286V22.714a3,3,0,0,0,3,3H22.683a3,3,0,0,0,3-3V4.286a3,3,0,0,0-3-3H4.317A3,3,0,0,0,1.317,4.286Zm2.94,18.857a.964.964,0,0,1,0-1.929H16.816a.964.964,0,1,1,0,1.929Zm0-3.857a.964.964,0,1,1,0-1.928H22.743a.964.964,0,1,1,0,1.928Zm0-3.856a.964.964,0,0,1,0-1.929H22.743a.964.964,0,0,1,0,1.929Zm0-4.5A.964.964,0,0,1,4.257,9H22.743a.964.964,0,0,1,0,1.929Zm0-4.5a.964.964,0,0,1,0-1.929H22.743a.964.964,0,0,1,0,1.929Z" fill="url(#linear-gradient)"/>
</svg>
